<svg width="49" height="16" viewBox="0 0 49 16" fill="none" xmlns="http://www.w3.org/2000/svg">
<g clip-path="url(#clip0_1692_17974)">
<path d="M4.19086 8.44004C2.69284 8.89191 1.36534 9.78388 0.380859 11C0.380859 10.8 0.440859 10.59 0.480859 10.39C0.696933 9.54986 1.12335 8.77852 1.71993 8.1487C2.31651 7.51888 3.06362 7.05131 3.89086 6.79004L4.19086 8.44004Z" fill="#FF0012"/>
<path d="M4.21092 3.8C4.05256 3.6396 3.84465 3.53741 3.62092 3.51C3.55484 3.50284 3.494 3.47063 3.45092 3.42L2.51092 2.29L2.42092 0L2.33092 2.29L1.39092 3.42C1.37125 3.4469 1.34573 3.46897 1.31628 3.48456C1.28683 3.50015 1.25423 3.50885 1.22092 3.51C0.997194 3.53741 0.789287 3.6396 0.630924 3.8C0.605139 3.82576 0.586157 3.85752 0.575684 3.89243C0.565212 3.92734 0.563576 3.9643 0.570924 4C0.570924 4.39 1.36092 4.47 1.36092 4.47C0.480924 3.96 1.98092 3.83 2.36092 3.8H2.50092C2.86092 3.8 4.36092 3.96 3.50092 4.47C3.50092 4.47 4.27092 4.39 4.29092 4C4.30094 3.96249 4.29856 3.92276 4.28414 3.88671C4.26973 3.85067 4.24404 3.82025 4.21092 3.8Z" fill="#231F20"/>
<path d="M3.45062 4.26999V4.99999H3.22063V4.51999C3.22358 4.49195 3.21951 4.46362 3.20879 4.43754C3.19807 4.41146 3.18103 4.38846 3.15921 4.37061C3.13739 4.35275 3.11147 4.34061 3.08379 4.33526C3.0561 4.32992 3.02752 4.33154 3.00063 4.33999C2.95464 4.34255 2.91139 4.36264 2.87976 4.39612C2.84814 4.4296 2.83055 4.47393 2.83062 4.51999V4.99999H2.60062V4.51999C2.60141 4.49515 2.59639 4.47047 2.58598 4.4479C2.57556 4.42534 2.56004 4.40551 2.54062 4.38999C2.50195 4.3754 2.4593 4.3754 2.42063 4.38999C2.37464 4.39255 2.33139 4.41264 2.29976 4.44612C2.26814 4.4796 2.25055 4.52393 2.25063 4.56999V4.99999H2.00063V4.51999C2.00102 4.47189 1.98315 4.42543 1.95063 4.38999C1.91195 4.3754 1.8693 4.3754 1.83063 4.38999C1.80743 4.38995 1.78448 4.39466 1.76317 4.40382C1.74187 4.41298 1.72266 4.4264 1.70674 4.44326C1.69081 4.46012 1.67851 4.48007 1.67058 4.50186C1.66265 4.52365 1.65926 4.54684 1.66062 4.56999V4.99999H1.39062V4.29999C1.39062 4.12999 1.85063 3.98999 2.39063 3.98999C2.93063 3.98999 3.45062 4.09999 3.45062 4.26999Z" fill="#FF0012"/>
<path d="M10.8403 15.1499C11.1849 14.1889 11.3378 13.1697 11.2903 12.1499C11.2103 10.3699 11.1503 8.49988 11.0303 7.75988L7.88031 14.2499C7.88031 14.2499 6.50031 11.2499 5.62031 9.68988C5.11031 8.78988 4.40031 7.60988 3.90031 6.78988L3.54031 6.19988C2.5107 6.59109 1.59115 7.22585 0.860313 8.04988C1.00031 7.26988 1.10031 6.68988 1.12031 6.48988C1.20031 5.76988 0.570312 5.86988 0.570312 5.86988L0.840312 5.13988H5.84031C5.96229 5.79934 6.20648 6.43018 6.56031 6.99988C7.25031 8.27988 8.56031 10.6899 8.56031 10.6899L10.4003 6.99988C10.5532 6.71481 10.6422 6.3999 10.6612 6.07699C10.6802 5.75408 10.6287 5.43091 10.5103 5.12988H13.4503C13.239 5.68417 13.1536 6.27852 13.2003 6.86988C13.2003 8.07988 13.4503 12.8699 13.4503 12.8699C13.4753 13.6609 13.6342 14.442 13.9203 15.1799L10.8403 15.1499Z" fill="#231F20"/>
<path d="M4.68052 11.2099C2.72416 11.6986 1.04127 12.9428 0.000521186 14.6699C-0.109479 10.7699 3.48052 9.41991 4.32052 9.15991L4.68052 11.2099Z" fill="#231F20"/>
<path d="M17.9992 5.13989H20.0792L23.3492 15.1399H21.4392L19.9092 9.81989C19.5892 8.75989 19.2992 7.61989 18.9992 6.51989H18.9392C18.6692 7.62989 18.3692 8.75989 18.0492 9.81989L16.5192 15.1499H14.6992L17.9992 5.13989ZM16.6292 10.9999H21.3492V12.3999H16.6292V10.9999Z" fill="#231F20"/>
<path d="M26.0703 11.4299L23.0703 5.13989H25.0003L26.0503 7.69989C26.3403 8.43989 26.6203 9.13989 26.9403 9.89989H27.0003C27.3203 9.13989 27.6303 8.43989 27.9203 7.69989L29.0003 5.13989H30.8503L27.8503 11.4299V15.1499H26.0703V11.4299Z" fill="#231F20"/>
<path d="M33.8791 5.13989H35.9991L39.2691 15.1399H37.3491L35.8191 9.81989C35.4991 8.75989 35.2091 7.61989 34.9191 6.51989H34.8491C34.5791 7.62989 34.2791 8.75989 33.9691 9.81989L32.4291 15.1499H30.6191L33.8791 5.13989ZM32.5491 10.9999H37.2591V12.3999H32.5491V10.9999Z" fill="#231F20"/>
<path d="M40.4707 5.13989H42.2407V9.68989L45.8107 5.13989H47.8107L44.7507 8.99989L48.3507 15.1099H46.3507L43.6407 10.3999L42.2007 12.1899V15.1099H40.4707V5.13989Z" fill="#231F20"/>
</g>
<defs>
<clipPath id="clip0_1692_17974">
<rect width="48.35" height="15.15" fill="white"/>
</clipPath>
</defs>
</svg>
